<svg width="111" height="51" viewBox="0 0 111 51" fill="none" xmlns="http://www.w3.org/2000/svg">
<path d="M11.5 0L18.8612 9.75H4.13878L11.5 0Z" fill="#E4F2FD"/>
<rect y="5" width="111" height="46" rx="4" fill="#E4F2FD"/>
<path d="M24.6548 21C24.6015 21 24.5548 20.98 24.5148 20.94C24.4748 20.9 24.4548 20.8533 24.4548 20.8L24.4748 20.69L27.0048 14.2C27.0582 14.0667 27.1548 14 27.2948 14H27.6348C27.7748 14 27.8715 14.0667 27.9248 14.2L30.4548 20.69L30.4748 20.8C30.4748 20.8533 30.4548 20.9 30.4148 20.94C30.3748 20.98 30.3282 21 30.2748 21H30.0748C30.0148 21 29.9648 20.9833 29.9248 20.95C29.8915 20.9167 29.8682 20.8833 29.8548 20.85L29.2348 19.25H25.6948L25.0748 20.85C25.0615 20.8833 25.0348 20.9167 24.9948 20.95C24.9615 20.9833 24.9148 21 24.8548 21H24.6548ZM28.9948 18.65L27.4648 14.71L25.9348 18.65H28.9948ZM31.7588 22.9C31.6921 22.9 31.6388 22.88 31.5988 22.84C31.5588 22.8 31.5388 22.7467 31.5388 22.68V16.02C31.5388 15.9533 31.5588 15.9 31.5988 15.86C31.6388 15.82 31.6921 15.8 31.7588 15.8H31.9288C31.9954 15.8 32.0488 15.82 32.0888 15.86C32.1288 15.9 32.1488 15.9533 32.1488 16.02V16.49C32.5354 15.9633 33.0954 15.7 33.8288 15.7C34.5488 15.7 35.0788 15.93 35.4188 16.39C35.7654 16.8433 35.9488 17.4033 35.9688 18.07C35.9754 18.1367 35.9788 18.2467 35.9788 18.4C35.9788 18.5533 35.9754 18.6633 35.9688 18.73C35.9488 19.3967 35.7654 19.96 35.4188 20.42C35.0788 20.8733 34.5488 21.1 33.8288 21.1C33.1021 21.1 32.5421 20.8367 32.1488 20.31V22.68C32.1488 22.7467 32.1288 22.8 32.0888 22.84C32.0488 22.88 31.9954 22.9 31.9288 22.9H31.7588ZM33.7688 20.52C34.3088 20.52 34.7021 20.35 34.9488 20.01C35.2021 19.6633 35.3388 19.22 35.3588 18.68C35.3654 18.6133 35.3688 18.52 35.3688 18.4C35.3688 17.78 35.2488 17.2733 35.0088 16.88C34.7688 16.48 34.3554 16.28 33.7688 16.28C33.2421 16.28 32.8454 16.4567 32.5788 16.81C32.3121 17.1567 32.1688 17.5667 32.1488 18.04L32.1388 18.43L32.1488 18.82C32.1554 19.1067 32.2188 19.38 32.3388 19.64C32.4588 19.8933 32.6388 20.1033 32.8788 20.27C33.1188 20.4367 33.4154 20.52 33.7688 20.52ZM38.7393 21.1C38.4193 21.1 38.1226 21.0333 37.8493 20.9C37.576 20.7667 37.356 20.5867 37.1893 20.36C37.0293 20.1333 36.9493 19.8833 36.9493 19.61C36.9493 19.17 37.126 18.81 37.4793 18.53C37.8393 18.25 38.3226 18.07 38.9293 17.99L40.5093 17.77V17.42C40.5093 17.0533 40.396 16.7733 40.1693 16.58C39.9493 16.38 39.6093 16.28 39.1493 16.28C38.8093 16.28 38.5293 16.3467 38.3093 16.48C38.096 16.6133 37.9593 16.7733 37.8993 16.96C37.8726 17.04 37.8393 17.0967 37.7993 17.13C37.766 17.1567 37.7193 17.17 37.6593 17.17H37.5193C37.4593 17.17 37.406 17.15 37.3593 17.11C37.3193 17.0633 37.2993 17.01 37.2993 16.95C37.2993 16.8033 37.366 16.6333 37.4993 16.44C37.6326 16.24 37.8393 16.0667 38.1193 15.92C38.3993 15.7733 38.7426 15.7 39.1493 15.7C39.8626 15.7 40.3693 15.87 40.6693 16.21C40.9693 16.55 41.1193 16.9633 41.1193 17.45V20.78C41.1193 20.8467 41.0993 20.9 41.0593 20.94C41.0193 20.98 40.966 21 40.8993 21H40.7293C40.6626 21 40.6093 20.98 40.5693 20.94C40.5293 20.9 40.5093 20.8467 40.5093 20.78V20.31C40.3626 20.53 40.146 20.7167 39.8593 20.87C39.5793 21.0233 39.206 21.1 38.7393 21.1ZM38.8393 20.52C39.326 20.52 39.726 20.36 40.0393 20.04C40.3526 19.72 40.5093 19.26 40.5093 18.66V18.32L39.2193 18.5C38.6726 18.5733 38.2593 18.7 37.9793 18.88C37.6993 19.06 37.5593 19.2867 37.5593 19.56C37.5593 19.8667 37.686 20.1033 37.9393 20.27C38.1993 20.4367 38.4993 20.52 38.8393 20.52ZM44.6406 23.2C44.1206 23.2 43.704 23.11 43.3906 22.93C43.0773 22.75 42.8573 22.5433 42.7306 22.31C42.6106 22.0833 42.5506 21.8833 42.5506 21.71C42.5506 21.65 42.5706 21.6 42.6106 21.56C42.6573 21.52 42.7106 21.5 42.7706 21.5H42.9106C42.9706 21.5 43.0173 21.5133 43.0506 21.54C43.0906 21.5733 43.124 21.63 43.1506 21.71C43.3573 22.3167 43.8373 22.62 44.5906 22.62C45.164 22.62 45.5873 22.5 45.8606 22.26C46.134 22.0267 46.2706 21.6067 46.2706 21V20.31C45.884 20.8367 45.324 21.1 44.5906 21.1C43.8706 21.1 43.3373 20.8667 42.9906 20.4C42.6506 19.9267 42.4706 19.3533 42.4506 18.68L42.4406 18.4L42.4506 18.12C42.4706 17.4467 42.6506 16.8767 42.9906 16.41C43.3373 15.9367 43.8706 15.7 44.5906 15.7C45.3173 15.7 45.8773 15.9633 46.2706 16.49V16.03C46.2706 15.9633 46.2906 15.91 46.3306 15.87C46.3706 15.8233 46.424 15.8 46.4906 15.8H46.6506C46.7173 15.8 46.7706 15.8233 46.8106 15.87C46.8573 15.91 46.8806 15.9633 46.8806 16.03V20.9C46.8806 21.6133 46.714 22.1733 46.3806 22.58C46.0473 22.9933 45.4673 23.2 44.6406 23.2ZM44.6506 20.52C45.1773 20.52 45.574 20.3467 45.8406 20C46.1073 19.6467 46.2506 19.2333 46.2706 18.76C46.2773 18.6933 46.2806 18.5733 46.2806 18.4C46.2806 18.2267 46.2773 18.1067 46.2706 18.04C46.2506 17.5667 46.1073 17.1567 45.8406 16.81C45.574 16.4567 45.1773 16.28 44.6506 16.28C44.1106 16.28 43.714 16.4533 43.4606 16.8C43.214 17.14 43.0806 17.58 43.0606 18.12L43.0506 18.4L43.0606 18.68C43.0806 19.22 43.214 19.6633 43.4606 20.01C43.714 20.35 44.1106 20.52 44.6506 20.52ZM49.9112 21.1C49.5912 21.1 49.2945 21.0333 49.0212 20.9C48.7478 20.7667 48.5278 20.5867 48.3612 20.36C48.2012 20.1333 48.1212 19.8833 48.1212 19.61C48.1212 19.17 48.2978 18.81 48.6512 18.53C49.0112 18.25 49.4945 18.07 50.1012 17.99L51.6812 17.77V17.42C51.6812 17.0533 51.5678 16.7733 51.3412 16.58C51.1212 16.38 50.7812 16.28 50.3212 16.28C49.9812 16.28 49.7012 16.3467 49.4812 16.48C49.2678 16.6133 49.1312 16.7733 49.0712 16.96C49.0445 17.04 49.0112 17.0967 48.9712 17.13C48.9378 17.1567 48.8912 17.17 48.8312 17.17H48.6912C48.6312 17.17 48.5778 17.15 48.5312 17.11C48.4912 17.0633 48.4712 17.01 48.4712 16.95C48.4712 16.8033 48.5378 16.6333 48.6712 16.44C48.8045 16.24 49.0112 16.0667 49.2912 15.92C49.5712 15.7733 49.9145 15.7 50.3212 15.7C51.0345 15.7 51.5412 15.87 51.8412 16.21C52.1412 16.55 52.2912 16.9633 52.2912 17.45V20.78C52.2912 20.8467 52.2712 20.9 52.2312 20.94C52.1912 20.98 52.1378 21 52.0712 21H51.9012C51.8345 21 51.7812 20.98 51.7412 20.94C51.7012 20.9 51.6812 20.8467 51.6812 20.78V20.31C51.5345 20.53 51.3178 20.7167 51.0312 20.87C50.7512 21.0233 50.3778 21.1 49.9112 21.1ZM50.0112 20.52C50.4978 20.52 50.8978 20.36 51.2112 20.04C51.5245 19.72 51.6812 19.26 51.6812 18.66V18.32L50.3912 18.5C49.8445 18.5733 49.4312 18.7 49.1512 18.88C48.8712 19.06 48.7312 19.2867 48.7312 19.56C48.7312 19.8667 48.8578 20.1033 49.1112 20.27C49.3712 20.4367 49.6712 20.52 50.0112 20.52ZM54.0925 21C54.0258 21 53.9725 20.98 53.9325 20.94C53.8925 20.9 53.8725 20.8467 53.8725 20.78V16.03C53.8725 15.9633 53.8925 15.91 53.9325 15.87C53.9725 15.8233 54.0258 15.8 54.0925 15.8H54.2525C54.3192 15.8 54.3725 15.8233 54.4125 15.87C54.4592 15.91 54.4825 15.9633 54.4825 16.03V16.49C54.7225 16.03 55.1758 15.8 55.8425 15.8H56.2125C56.2792 15.8 56.3325 15.82 56.3725 15.86C56.4125 15.9 56.4325 15.9533 56.4325 16.02V16.16C56.4325 16.2267 56.4125 16.28 56.3725 16.32C56.3325 16.36 56.2792 16.38 56.2125 16.38H55.7825C55.3825 16.38 55.0658 16.4967 54.8325 16.73C54.5992 16.9633 54.4825 17.28 54.4825 17.68V20.78C54.4825 20.8467 54.4592 20.9 54.4125 20.94C54.3725 20.98 54.3192 21 54.2525 21H54.0925ZM59.793 14.73C59.7264 14.73 59.673 14.71 59.633 14.67C59.593 14.63 59.573 14.5767 59.573 14.51V14.13C59.573 14.0633 59.593 14.01 59.633 13.97C59.673 13.9233 59.7264 13.9 59.793 13.9H60.173C60.2397 13.9 60.293 13.9233 60.333 13.97C60.3797 14.01 60.403 14.0633 60.403 14.13V14.51C60.403 14.5767 60.3797 14.63 60.333 14.67C60.293 14.71 60.2397 14.73 60.173 14.73H59.793ZM59.903 21C59.8364 21 59.783 20.98 59.743 20.94C59.703 20.9 59.683 20.8467 59.683 20.78V16.02C59.683 15.9533 59.703 15.9 59.743 15.86C59.783 15.82 59.8364 15.8 59.903 15.8H60.073C60.1397 15.8 60.193 15.82 60.233 15.86C60.273 15.9 60.293 15.9533 60.293 16.02V20.78C60.293 20.8467 60.273 20.9 60.233 20.94C60.193 20.98 60.1397 21 60.073 21H59.903ZM63.6596 21C63.1663 21 62.8163 20.8533 62.6096 20.56C62.4029 20.26 62.2996 19.85 62.2996 19.33V16.38H61.5196C61.4529 16.38 61.3996 16.36 61.3596 16.32C61.3196 16.28 61.2996 16.2267 61.2996 16.16V16.02C61.2996 15.9533 61.3196 15.9 61.3596 15.86C61.3996 15.82 61.4529 15.8 61.5196 15.8H62.2996V14.12C62.2996 14.0533 62.3196 14 62.3596 13.96C62.3996 13.92 62.4529 13.9 62.5196 13.9H62.6896C62.7563 13.9 62.8096 13.92 62.8496 13.96C62.8896 14 62.9096 14.0533 62.9096 14.12V15.8H64.1496C64.2163 15.8 64.2696 15.82 64.3096 15.86C64.3496 15.9 64.3696 15.9533 64.3696 16.02V16.16C64.3696 16.2267 64.3496 16.28 64.3096 16.32C64.2696 16.36 64.2163 16.38 64.1496 16.38H62.9096V19.29C62.9096 19.6633 62.9696 19.9467 63.0896 20.14C63.2163 20.3267 63.4229 20.42 63.7096 20.42H64.2496C64.3163 20.42 64.3696 20.44 64.4096 20.48C64.4496 20.52 64.4696 20.5733 64.4696 20.64V20.78C64.4696 20.8467 64.4496 20.9 64.4096 20.94C64.3696 20.98 64.3163 21 64.2496 21H63.6596ZM67.4334 21.1C66.8 21.1 66.29 20.8933 65.9034 20.48C65.5167 20.06 65.2967 19.5 65.2434 18.8L65.2334 18.4L65.2434 18C65.2967 17.3067 65.5134 16.75 65.8934 16.33C66.28 15.91 66.7934 15.7 67.4334 15.7C68.1267 15.7 68.6667 15.93 69.0534 16.39C69.4467 16.85 69.6434 17.48 69.6434 18.28V18.43C69.6434 18.4967 69.62 18.55 69.5734 18.59C69.5334 18.63 69.48 18.65 69.4134 18.65H65.8534V18.75C65.8667 19.0633 65.9367 19.3567 66.0634 19.63C66.1967 19.8967 66.38 20.1133 66.6134 20.28C66.8467 20.44 67.12 20.52 67.4334 20.52C67.8 20.52 68.0967 20.45 68.3234 20.31C68.5567 20.1633 68.7234 20.0167 68.8234 19.87C68.8834 19.79 68.9267 19.74 68.9534 19.72C68.9867 19.7 69.0434 19.69 69.1234 19.69H69.2834C69.3434 19.69 69.3934 19.7067 69.4334 19.74C69.4734 19.7733 69.4934 19.8167 69.4934 19.87C69.4934 20.01 69.4034 20.18 69.2234 20.38C69.05 20.5733 68.8067 20.7433 68.4934 20.89C68.18 21.03 67.8267 21.1 67.4334 21.1ZM69.0334 18.09V18.05C69.0334 17.5367 68.8867 17.1133 68.5934 16.78C68.3067 16.4467 67.92 16.28 67.4334 16.28C66.9467 16.28 66.56 16.4467 66.2734 16.78C65.9934 17.1133 65.8534 17.5367 65.8534 18.05V18.09H69.0334ZM71.1823 21C71.1157 21 71.0623 20.98 71.0223 20.94C70.9823 20.9 70.9623 20.8467 70.9623 20.78V16.02C70.9623 15.9533 70.9823 15.9 71.0223 15.86C71.0623 15.82 71.1157 15.8 71.1823 15.8H71.3523C71.419 15.8 71.4723 15.82 71.5123 15.86C71.5523 15.9 71.5723 15.9533 71.5723 16.02V16.37C71.7457 16.15 71.9457 15.9833 72.1723 15.87C72.4057 15.7567 72.6823 15.7 73.0023 15.7C73.749 15.7 74.2823 16.0133 74.6023 16.64C74.7623 16.3533 74.989 16.1267 75.2823 15.96C75.5823 15.7867 75.9223 15.7 76.3023 15.7C76.8557 15.7 77.3057 15.89 77.6523 16.27C77.999 16.6433 78.1723 17.1767 78.1723 17.87V20.78C78.1723 20.8467 78.1523 20.9 78.1123 20.94C78.0723 20.98 78.019 21 77.9523 21H77.7823C77.7157 21 77.6623 20.98 77.6223 20.94C77.5823 20.9 77.5623 20.8467 77.5623 20.78V17.97C77.5623 17.3633 77.4357 16.93 77.1823 16.67C76.9357 16.41 76.609 16.28 76.2023 16.28C75.8423 16.28 75.529 16.4133 75.2623 16.68C75.0023 16.94 74.8723 17.37 74.8723 17.97V20.78C74.8723 20.8467 74.8523 20.9 74.8123 20.94C74.7723 20.98 74.719 21 74.6523 21H74.4823C74.4157 21 74.3623 20.98 74.3223 20.94C74.2823 20.9 74.2623 20.8467 74.2623 20.78V17.97C74.2623 17.37 74.1323 16.94 73.8723 16.68C73.6123 16.4133 73.289 16.28 72.9023 16.28C72.5423 16.28 72.229 16.4133 71.9623 16.68C71.7023 16.94 71.5723 17.3667 71.5723 17.96V20.78C71.5723 20.8467 71.5523 20.9 71.5123 20.94C71.4723 20.98 71.419 21 71.3523 21H71.1823ZM81.2259 19.57C81.1592 19.57 81.1059 19.55 81.0659 19.51C81.0259 19.47 81.0059 19.4167 81.0059 19.35V18.87C81.0059 18.5967 81.0525 18.35 81.1459 18.13C81.2392 17.91 81.3525 17.72 81.4859 17.56C81.6192 17.3933 81.7959 17.1967 82.0159 16.97C82.2892 16.6833 82.4859 16.45 82.6059 16.27C82.7325 16.0833 82.7959 15.8733 82.7959 15.64C82.7959 15.2867 82.6459 15.0067 82.3459 14.8C82.0459 14.5867 81.6992 14.48 81.3059 14.48C80.8859 14.48 80.5359 14.59 80.2559 14.81C79.9759 15.03 79.7959 15.3833 79.7159 15.87C79.6892 16.0167 79.6092 16.09 79.4759 16.09H79.3159C79.2559 16.09 79.2059 16.0733 79.1659 16.04C79.1259 16 79.1059 15.95 79.1059 15.89C79.1125 15.5233 79.2125 15.19 79.4059 14.89C79.5992 14.5833 79.8592 14.3433 80.1859 14.17C80.5192 13.99 80.8925 13.9 81.3059 13.9C81.7525 13.9 82.1325 13.98 82.4459 14.14C82.7659 14.3 83.0025 14.5133 83.1559 14.78C83.3159 15.0467 83.3959 15.3333 83.3959 15.64C83.3959 15.9867 83.3159 16.2867 83.1559 16.54C82.9959 16.7933 82.7592 17.0833 82.4459 17.41C82.1659 17.7033 81.9559 17.9533 81.8159 18.16C81.6825 18.3667 81.6159 18.6033 81.6159 18.87V19.35C81.6159 19.4167 81.5959 19.47 81.5559 19.51C81.5159 19.55 81.4625 19.57 81.3959 19.57H81.2259ZM81.1059 21C81.0392 21 80.9859 20.98 80.9459 20.94C80.9059 20.9 80.8859 20.8467 80.8859 20.78V20.4C80.8859 20.3333 80.9059 20.28 80.9459 20.24C80.9859 20.1933 81.0392 20.17 81.1059 20.17H81.4859C81.5525 20.17 81.6059 20.1933 81.6459 20.24C81.6925 20.28 81.7159 20.3333 81.7159 20.4V20.78C81.7159 20.8467 81.6925 20.9 81.6459 20.94C81.6059 20.98 81.5525 21 81.4859 21H81.1059Z" fill="black"/>

</svg>
